<svg width="24" height="24" viewBox="0 0 24 24" fill="none" xmlns="http://www.w3.org/2000/svg">
<circle cx="12.1739" cy="12.1739" r="10.4347" fill="#202020" fill-opacity="0.8"/>
<path d="M11.9926 22.5734V1.41177C5.95914 1.41177 1.42662 5.95913 1.42662 11.9926C1.42662 18.026 5.95914 22.5734 11.9926 22.5734ZM11.9926 23.9851C18.6205 23.9851 24 18.6205 24 11.9926C24 5.3647 18.6205 0 11.9926 0C5.37956 0 0 5.3647 0 11.9926C0 18.6205 5.37956 23.9851 11.9926 23.9851ZM11.9926 21.7264C6.613 21.7264 2.27369 17.3721 2.27369 11.9926C2.27369 6.613 6.613 2.25883 11.9926 2.25883C17.3721 2.25883 21.7264 6.613 21.7264 11.9926C21.7264 17.3721 17.3721 21.7264 11.9926 21.7264Z" fill="#D1D1D1"/>
</svg>
